<svg width="116" height="91" viewBox="0 0 116 91" fill="none" xmlns="http://www.w3.org/2000/svg">
<path d="M27.8269 36.2519H56.7283V41.9095H56.7304C55.9369 42.1322 55.2427 42.533 54.7329 43.0627C54.2231 43.5925 53.9199 44.2283 53.8602 44.8923C55.2286 44.5458 56.6569 44.3695 58.0938 44.3698C59.5784 44.3698 61.0537 44.5548 62.4653 44.9182C62.4118 44.2497 62.1113 43.6084 61.6011 43.0737C61.0909 42.5389 60.3934 42.1343 59.5951 41.9099H59.5977V36.2519H88.1731V31.8171H27.8269V36.2519Z" fill="black"/>
<path d="M27.8269 26.7751H88.1734V29.9263H27.8269V26.7751Z" fill="black"/>
<path d="M102.404 86.4477H87.4969C86.7889 86.4483 86.1101 86.671 85.6095 87.0667C85.1089 87.4625 84.8272 87.9991 84.8264 88.5588V90.8943H105.074V88.5588C105.073 87.9991 104.792 87.4625 104.291 87.0667C103.79 86.671 103.112 86.4483 102.404 86.4477Z" fill="black"/>
<path d="M95.8389 26.7751H90.5649V84.5577H99.3356V26.5334C98.1811 26.694 97.0111 26.7748 95.8389 26.7751Z" fill="black"/>
<path d="M20.1611 26.7751C18.9886 26.7749 17.8184 26.694 16.6637 26.5334V84.5569H25.4351V26.7743L20.1611 26.7751ZM21.4048 50.9345C21.4048 51.1852 21.2788 51.4257 21.0545 51.603C20.8303 51.7803 20.5261 51.8799 20.2089 51.8799C19.8917 51.8799 19.5875 51.7803 19.3632 51.603C19.139 51.4257 19.013 51.1852 19.013 50.9345V34.5392C19.013 34.2885 19.139 34.048 19.3632 33.8707C19.5875 33.6935 19.8917 33.5939 20.2089 33.5939C20.5261 33.5939 20.8303 33.6935 21.0545 33.8707C21.2788 34.048 21.4048 34.2885 21.4048 34.5392V50.9345ZM21.4048 30.8783C21.4048 31.129 21.2788 31.3695 21.0545 31.5468C20.8303 31.7241 20.5261 31.8237 20.2089 31.8237C19.8917 31.8237 19.5875 31.7241 19.3632 31.5468C19.139 31.3695 19.013 31.129 19.013 30.8783V30.3678C19.013 30.117 19.139 29.8766 19.3632 29.6993C19.5875 29.522 19.8917 29.4224 20.2089 29.4224C20.5261 29.4224 20.8303 29.522 21.0545 29.6993C21.2788 29.8766 21.4048 30.117 21.4048 30.3678V30.8783Z" fill="black"/>
<path d="M10.9261 88.5588V90.8943H31.1735V88.5588C31.1727 87.9991 30.8911 87.4625 30.3904 87.0667C29.8898 86.671 29.211 86.4483 28.503 86.4477H13.5963C12.8884 86.4483 12.2096 86.671 11.709 87.0667C11.2084 87.4625 10.9268 87.9991 10.9261 88.5588Z" fill="black"/>
<path d="M114.148 4.94913C113.994 4.97285 113.847 5.02033 113.716 5.08887C113.585 5.15742 113.472 5.24568 113.385 5.34862C113.297 5.45156 113.236 5.56716 113.204 5.68883C113.173 5.81049 113.172 5.93584 113.202 6.0577C113.697 8.05899 113.624 10.122 112.989 12.0984C108.141 12.982 103.183 13.4301 98.2074 13.4342C96.8151 13.4342 95.3755 13.3964 93.899 13.3157C92.9354 16.6225 90.6586 19.5988 87.4016 21.8093C86.9816 22.0948 86.5441 22.3601 86.0982 22.6154H81.293C83.8011 21.7651 86.0266 20.468 87.7956 18.8253C89.5647 17.1827 90.8294 15.239 91.4911 13.1461C91.1084 13.113 90.7257 13.0775 90.3387 13.0378C77.7098 11.7416 66.5844 7.39222 57.2521 0.105682C45.6679 9.15123 32.934 12.4335 22.1415 13.2242C22.8046 15.3015 24.0655 17.2298 25.8259 18.8588C27.5863 20.4878 29.7988 21.7734 32.2908 22.6156H27.472C23.5559 20.3751 20.8021 17.0867 19.7224 13.3618C14.1383 13.584 8.54154 13.2231 3.07686 12.2882C2.38388 10.2555 2.28873 8.12437 2.79869 6.05808C2.82942 5.93598 2.82934 5.81028 2.79846 5.68821C2.76758 5.56613 2.7065 5.45008 2.61873 5.34671C2.53096 5.24334 2.41822 5.1547 2.287 5.08586C2.15578 5.01703 2.00865 4.96936 1.85406 4.94559C1.69947 4.92183 1.54047 4.92243 1.38618 4.94737C1.23188 4.97231 1.08534 5.0211 0.954963 5.09093C0.824584 5.16076 0.712936 5.25025 0.626427 5.35428C0.539918 5.45831 0.480253 5.57482 0.450856 5.69713C-0.102048 7.98937 -0.00752664 10.3499 0.727664 12.6099C1.46285 14.8699 2.82056 16.9736 4.70372 18.7706C6.58687 20.5676 8.94898 22.0135 11.6212 23.005C14.2934 23.9965 17.2097 24.5091 20.1616 24.5062H95.8395C98.7915 24.5092 101.708 23.9967 104.38 23.0052C107.053 22.0137 109.415 20.5677 111.298 18.7707C113.181 16.9736 114.539 14.8698 115.274 12.6097C116.009 10.3496 116.104 7.98906 115.551 5.69675C115.521 5.57481 115.461 5.45873 115.374 5.35515C115.287 5.25157 115.176 5.16252 115.045 5.09309C114.915 5.02366 114.769 4.97521 114.615 4.95051C114.461 4.92581 114.302 4.92534 114.148 4.94913Z" fill="black"/>
</svg>
