<?xml version="1.0" encoding="UTF-8" standalone="no"?>
<svg
   xmlns:dc="http://purl.org/dc/elements/1.1/"
   xmlns:cc="http://creativecommons.org/ns#"
   xmlns:rdf="http://www.w3.org/1999/02/22-rdf-syntax-ns#"
   xmlns:svg="http://www.w3.org/2000/svg"
   xmlns="http://www.w3.org/2000/svg"
   version="1.1"
   id="Layer_1"
   x="0px"
   y="0px"
   viewBox="0 0 2610 909"
   enable-background="new 0 0 2610 909"
   xml:space="preserve"><metadata
   id="metadata9"><rdf:RDF><cc:Work
       rdf:about=""><dc:format>image/svg+xml</dc:format><dc:type
         rdf:resource="http://purl.org/dc/dcmitype/StillImage" /><dc:title></dc:title></cc:Work></rdf:RDF></metadata><defs
   id="defs7" />
<path
   d="M1128.227,24.804c1.489,3.813,0.651,58.961,0.635,65.188c0.993,0.727,1.997,1.464,3.021,2.202  c-3.638,6.531-1.023,0.211-2.089,28.59c-0.031,3.482-1.352,7.055,0.01,10.445c0.584-0.41,1.751-1.229,2.345-1.638  c-1.696,5.757-1.334,37.785-1.3,38.81c0.788,0.092,2.355,0.297,3.144,0.389c0.041,1.505,0.102,3.011,0.174,4.516  c4.096,5.11,4.495,13.373-1.137,17.541c-0.859,40.68,2.067,31.048-0.143,36.618c0.051,4.854-0.359,9.882,1.444,14.51  c11.594,4.404,14.183,9.462,18.903,17.388c5.932,22.282-1.626,20.818-0.922,30.3c-3.963,2.58-8.141,4.895-11.643,8.12  c0,0-0.522,174.598-0.522,174.664c1.454,0.84,2.898,1.731,4.342,2.652c3.912-1.403,7.793-3.983,12.145-3.031  c7.055,1.27,14.305,0.563,21.35,2.068c0.051-4.332,0.031-8.643,0.062-12.964c1.802-0.87,3.584-1.884,4.762-3.564  c1.29-0.102,2.601-0.174,3.932-0.236c1.946-3.912,4.618-7.352,7.066-10.947c1.761-0.502,3.533-0.983,5.335-1.444  c0.348-0.256,1.055-0.758,1.413-1.004c2.837,0.287,5.622-0.328,8.376-0.993c1.771,1.925,4.168,2.959,6.513,1.178  c0.043,0.265-0.357,39.124,1.167,52.419c2.539-3.082,1.771-7.363,2.283-11.049c0.532-0.512,1.597-1.526,2.12-2.038  c1.096,0.932,2.202,1.864,3.328,2.785c0.829-4.301,0.195-8.878,1.997-12.964c1.423-3.348,0.665-7.086,0.696-10.598  c1.444-0.01,2.898-0.021,4.362-0.021c0.082-1.259,0.133-2.519,0.133-3.779c0.41-0.41,1.219-1.229,1.618-1.638  c-0.215-0.758-0.41-1.516-0.594-2.263c3.266-1.219,6.615-2.222,10.076-2.816c0.164-3.338-0.604-6.574-1.403-9.769  c0.655-0.819,1.352-1.618,2.089-2.386c1.197-13.163,10.248-17.109,15.165-21.893c0.297-1.659,0.318-3.553,1.864-4.618  c1.813-0.461,2.673,1.372,3.799,2.396c-0.102,0.614-0.307,1.853-0.41,2.478c3.164,2.355,6.328,4.741,9.134,7.537  c1.061-6.961,24.312-1.309,30.177-1.106c1.178,3.297,0.113,6.963,0.215,10.414c5.235-1.029,26.842-15.989,28.877-17.521  c2.222-0.143,4.475-0.348,6.718-0.379c-0.445,4.485-1.666,30.474-0.625,35.697c6.4,5.642,13.056,11.049,19.784,16.312  c0.143-2.478,0.328-4.956,0.881-7.373c-1.014-1.403-1.987-2.806-2.949-4.219c-2.027-0.451-4.045-0.942-6.042-1.423  c0-1.198,0.072-2.386,0.235-3.564c1.72-0.369,3.42-0.737,5.192-1.034c-0.195-1.075-0.328-2.161-0.389-3.236  c0.911,0.952,1.823,1.925,2.765,2.888c2.775-0.85,4.987-2.744,7.332-4.383c3.123-2.253,7.035-2.724,10.66-3.748  c0.87,0.246,1.741,0.492,2.642,0.748c-1.044-47.014-0.406-19.511,0.021-32.532c-0.451-1.69-1.311-3.246-1.659-4.956  c1.024-1.096,2.191-2.028,3.349-2.99c6.513-0.573,12.554-5.396,19.18-3.4c4.291,0.963,8.817,1.536,12.554,4.065  c-2.607,6.903-2.108,43.658-2.406,70.042c5.833,1.66,4.399-0.288,37.908,1.925c0.113,5.663-0.051,11.325,0.031,16.998  c5.816,0.789,11.448,2.662,16.63,5.437c-0.778,4.864-1.874,9.687-2.335,14.602c4.147,0.276,8.1,2.212,12.329,1.638  c4.035-0.532,8.131-0.297,12.032,0.911c-0.113,1.239-0.154,2.488-0.092,3.738c-2.478,3.082-1.71,7.229-1.669,10.875  c-0.082,1.71,1.004,3.092,1.792,4.516c-2.519,5.202-2.324,11.018-2.335,16.65c0.727-0.092,2.191-0.266,2.918-0.348  c0.512-2.601,0.348-5.274,0.369-7.905c0.737-1.004,1.495-1.997,2.284-2.98c0.041-2.959,0.072-5.898,0.092-8.847  c2.038-0.461,4.096-0.932,6.165-1.393c-0.102-2.878-0.205-5.745-0.318-8.612c4.015-1.568,6.04,0.334,6.236-13.722  c1.152-137.145-1.516-127.385,1.761-132.659c0.216-1.457,1.565-31.325,1.618-33.034c2.816-0.113,5.683-0.266,8.427-1.065  c0.389,0.246,1.178,0.727,1.567,0.973c0.799-1.311,1.628-2.632,2.447-3.942c2.744,1.372,5.693-0.594,8.561,0.133  c3.062,0.543,6.277,0.666,9.124,2.089c6.298,3.164,13.548,3.717,19.896,6.758c4.117,2.877,7.721,6.513,12.257,8.806  c0.266-5.54-0.246-11.11,0.235-16.64c5.693-3.871,13.773-3.656,18.913-8.591c-2.652,0.133-5.233,0.676-7.823,1.096  c2.888-2.15,6.492-2.734,9.953-3.369c1.014-0.768,2.048-1.526,3.134-2.253c0.092,0.645,0.266,1.925,0.358,2.57  c6.844-0.512,11.724-3.287,28.846-8.305c0.676,0.594,1.382,1.188,2.109,1.792c3.686,1.188,7.772,2.028,10.732,4.7  c0.009,0.432,1.557,135.122,1.557,203.366c0.655,0.031,1.976,0.102,2.632,0.133c0.174-12.718,0.399-25.446,0.43-38.165  c2.929,0.102,5.868,0.031,8.817-0.061c2.819-124.854-1.49-91.565,4.567-110.582c4.162,1.977,37.467,23.085,39.997,26.952  c1.434-6.98-0.584-68.641,1.72-82.924c0.655-0.01,1.946-0.02,2.591-0.02c0.543-1.556,1.126-3.103,1.741-4.649  c1.567-0.563,3.133-1.147,4.731-1.731c-0.072-1.577-0.102-3.154-0.123-4.731c0.799-0.051,2.396-0.174,3.195-0.225  c-0.041-1.587-0.051-3.164-0.041-4.741c1.679-0.42,3.39-0.87,5.089-1.352c1.741-4.782,2.406-9.779,2.273-14.838  c0.43-0.256,1.301-0.747,1.731-0.993c0.164-1.915,0.031-3.942,1.024-5.663c3.052-5.161-0.829-11.848,2.662-16.824  c0.891,5.407,0.502,10.895,0.584,16.343c3.471,0.543,1.516,4.506,1.782,6.871c0.625-0.287,1.894-0.881,2.519-1.167  c-1.656,11.008-1.337,3.4,1.137,15.206c2.028,0.737,4.086,1.403,6.124,2.212c-0.471,0.932-0.932,1.864-1.362,2.796  c0.573,0.348,1.731,1.044,2.304,1.382c1.037-14.716-0.432-52.749-0.225-60.283c1.024-0.261,53.896-14.032,57.354-13.763  c-0.13,57.844-0.973,132.065-0.973,132.065c17.448-4.759,15.646-2.365,29.645-3.041c11.254,0.512,22.63-0.788,33.761,1.393  c0.235,24.013-0.358,48.056,0.297,72.069c1.238-2.345,1.73-3.718,1.915-27.863c1.157-1.372,2.324-2.765,3.461-4.178  c0.031-4.946,1.557-9.759,1.444-14.725c0.184-0.471,0.573-1.423,0.758-1.905c-1.026-4.514,4.928-31.654,2.867-39.578  c0.87-1.915,0.973-4.014,0.502-6.031c2.314-5.663,1.413-11.93,2.324-17.859c-0.307-0.471-0.942-1.403-1.26-1.864  c2.325-5.868-0.072-12.329,1.598-18.34c1.669-5.192,0.143-10.547,1.341-15.749c-0.328-2.376-1.26-4.751-0.676-7.178  c1.331-6.461-0.051-13.158,1.495-19.599c-0.147-1.029-1.745-161.388,1.945-194.519c-0.256-0.799-0.481-1.597-0.676-2.386  c13.862-8.125,35.548-11.849,44.82-9.605c0.768,0.768,1.556,1.526,2.365,2.294c0,0,11.249,129.256,12.298,334.5  c-0.195,1.464,0.799,2.57,1.628,3.656c0.625-2.499,1.065-5.079,0.707-7.649c1.096-0.993,2.202-1.997,3.287-3.041  c1.823-0.43,3.676-0.891,5.519-1.382c2.13-11.756,0.717-23.767,1.188-35.635c3.968-0.198,59.033-10.076,90.532-5.018  c1.229,6.226-0.256,12.534,0.154,18.811c12.553-0.703,33.258-6.787,40.059-5.355c2.629,0.497,26.812,6.688,32.174,7.188  c-0.021,22.804-0.246,45.609-0.143,68.413c5.98-1.843,12.011,0.061,18.104-0.072c0.328,0.512,0.993,1.536,1.321,2.038  c6.267-0.123,12.892,0.01,18.78,2.304c-2.376,1.72-5.468,4.024-3.994,7.363c-0.553,3.584-0.543,7.209-0.399,10.824  c0.717,0.072,2.13,0.205,2.836,0.266c0.43,0.614,0.881,1.229,1.372,1.853c-0.757,5.474-0.442,40.849-0.276,45.978  c0.778-0.021,2.324-0.061,3.092-0.082c2.324-4.004,7.199-3.103,11.1-3.082c0.809,3.144,1.71,6.267,2.488,9.421  c3.451-0.43,7.567-0.655,9.667-3.912c-0.809-0.143-2.427-0.41-3.236-0.543c0.922-1.086,1.905-2.13,2.785-3.277  c-0.676-0.328-2.027-0.973-2.703-1.3c0.891-0.645,1.802-1.29,2.734-1.925c-0.338-1.382-2.232-1.475-2.417-2.939  c0.891-0.747,1.884-1.352,2.99-1.823c-0.747-0.318-2.253-0.952-3-1.27c0.707-0.85,1.352-1.802,1.956-2.755  c-0.768-0.778-1.444-1.587-2.058-2.427c0.737-0.287,2.202-0.85,2.939-1.137c1.556-2.806-0.441-5.448-3.103-6.41  c1.188-0.461,2.201-1.239,3.41-1.802c0.072-2.509,0.092-5.018,0.144-7.516c2.324-0.727,5.202-0.543,7.014-2.406  c0.389-5.253,0-10.537,0.133-15.79c2.683-0.666,5.653-1.065,7.741-3.103c3.134-1.423,6.615-1.065,9.964-1.536  c0.328-0.451,1.003-1.352,1.331-1.812c5.386-0.215,10.445,1.915,15.739,2.529c4.311,0.553,8.735,0.553,12.944,1.925  c-1.71,1.577-3.471,3.092-5.12,4.71c0.358,0.471,1.065,1.413,1.423,1.884c-1.771,3.738-1.014,7.885-0.338,11.786  c-0.348,2.98-1.249,6.052,0.092,8.96c-1.065,2.785-1.096,5.796,0.215,8.509c-0.317,0.44-0.952,1.311-1.27,1.751  c0.4,0.502,1.188,1.495,1.577,1.997c-0.318,0.481-0.963,1.444-1.28,1.925c0.604,1.505,0.829,3.072,0.072,4.588  c0.307,0.44,0.911,1.311,1.219,1.751c-0.389,0.522-1.157,1.556-1.536,2.079c0.369,0.481,1.106,1.454,1.475,1.946  c-0.502,0.911-0.973,1.823-1.413,2.755c0.707,0.573,2.12,1.741,2.816,2.324c1.905-3.035,1.454-4.418,1.454-25.344  c2.632-0.225,5.294-0.502,7.905-1.085c0.348-1.382,0.154-3.174,1.526-4.065c4.373-0.225,8.837,0.01,13.066-1.413  c0.246-2.365-0.676-5.243,0.686-7.27c3.359-1.311,7.127-1.341,10.711-1.853c0.717-2.284-0.287-3.912-2.437-4.782  c4.628-0.082,9.237,0.42,13.855,0.922c-0.389,0.492-1.177,1.475-1.567,1.976c1.372-0.02,2.775-0.02,4.209-0.031  c1.679,4.127,1.577,8.796,3.717,12.739c-0.072,1.618-0.072,3.236,0.256,4.833c-0.223,2.787-1.463,27.082,2.14,23.665  c0.604-5.898,0.768-11.827,1.29-17.725c14.698-2.026,13.779-4.095,17.224-2.068c0.154,2.488,0.615,4.956,1.27,7.373  c8.796-0.604,17.562-1.813,26.409-2.048c1.434,0.41,2.816,1.106,4.209,1.751c-0.072,28.836-0.144,57.661-0.01,86.497  c1.669,0.021,3.379,0.031,5.11,0.051c0.041-2.806,0.082-5.591,0.113-8.387c3.717-1.567,7.762-1.884,11.745-2.304  c0.184-1.198,0.399-2.376,0.645-3.553c3.246-0.154,6.543-0.727,9.81-0.174c0.85,1.044,1.444,2.273,2.14,3.471  c5.52,0.379,11.059,0.379,16.599,0.358c0.276-0.492,0.819-1.475,1.095-1.966c1.638-0.164,3.307-0.328,5.008-0.471  c1.72-12.39,0.194-24.955,1.311-37.356c4.188-1.229,8.612-1.055,12.943-1.239c0.01-2.857,0.041-5.704,0.154-8.54  c5.386-0.625,10.803-1.044,16.24-0.696c0,2.816,0.021,5.632,0.082,8.448c4.157,0.84,8.427,0.778,12.667,0.369  c0.584,6.349-0.133,12.749,0.563,19.098c1.597-0.041,3.225-0.082,4.895-0.102c0.307,0.512,0.911,1.526,1.219,2.038  c0.758-0.01,2.294-0.041,3.062-0.051c1.633-1.464,4.484-6.819,9.974-0.195c2.499-0.092,5.018-0.256,7.537-0.543  c5.744-4.618,12.278,2.048,18.688,0.789c0.686,1.946,1.382,3.891,2.109,5.837c2.017,0.952,3.912,2.212,5.355,3.973  c1.331,0.358,2.734,0.707,4.147,1.055c0.195-1.925,0.635-3.86,0.471-5.796c-1.26-7.127,1.464-14.193,0.614-21.371  c1.628-0.512,3.328-0.932,4.936-1.649c1.188-2.365,0.553-5.243,0.799-7.803c10.414,1.72,21.043,0.87,31.365-1.157  c0.113,0.696,0.348,2.079,0.461,2.765c2.294-0.041,4.588-0.399,6.912-0.645c0.235-3.031,0.368-6.072,0.491-9.103  c24.444,1.127,13.598-0.194,26.143-0.768c0.522-4.28,0.553-8.663,1.618-12.851c1.075-1.126,2.785-1.065,4.25-1.505  c2.099,2.918,5.458,1.178,8.335,0.942c2.632,0.287,5.243,0.84,7.916,1.096c0.164-1.249,0.369-2.488,0.604-3.717  c2.028-0.092,4.096-0.287,6.175-0.102c0.389,1.382,0.727,2.796,1.106,4.209c1.188,0.154,2.406,0.317,3.656,0.481v377.416  c-853.33-0.031-1706.67,0.031-2560-0.031V565.486c0.328,1.229,0.594,2.478,0.799,3.738c3.84,0.01,7.69-0.164,11.54,0  c2.775,0.143,5.263,1.638,8.028,1.884c3.062,0.348,6.492,0.307,8.991,2.417c0.707,2.058,0.963,4.25,1.362,6.39  c1.772,0.43,3.533,0.881,5.284,1.362c4.424-1.096,9.39-2.427,13.65-0.082c2.734,1.341,7.578,2.335,8.653-1.485  c3.584,1.813,7.455,2.898,11.366,3.758c0.492,1.331,0.973,2.662,1.485,4.004c2.304-0.983,4.639-1.894,6.984-2.775  c2.109,0.645,4.25,1.188,6.4,1.669c0.215-3.994-0.389-8.55,2.826-11.551c2.933-9.142,0.765-24.46,2.478-70.113  c5.427,0.686,10.68-0.85,15.268-3.697c-0.717-0.317-2.161-0.942-2.877-1.26c1.741,0.021,3.727-0.256,4.792,1.475  c2.755,0.563,5.55,0.901,8.346,1.198c0.092-0.758,0.287-2.294,0.379-3.062c5.059-0.942,10.189,0.358,15.237,0.86  c0.082,0.758,0.256,2.284,0.348,3.052c8.428,4.547,18.289,0.86,27.29,2.765c3.085,6.566,1.16,3.617,2.294,67.512  c2.14,0.246,4.291,0.42,6.451,0.584c0.317-1.003,0.645-2.007,0.983-2.99c0.942-0.584,1.864-1.198,2.744-1.853  c0.768-3.164,0.604-6.472,1.096-9.677c1.434-1.792,1.864-4.055,2.273-6.246c28.827-0.577,14.357,0.283,31.007,1.577  c1.239,4.291,2.918,8.499,2.632,13.066c6.124,0.287,12.042-1.526,18.074-2.304c0.106-1.024,0.918-18.871,1.147-44.493  c0.676-0.143,2.038-0.43,2.714-0.563c0.123-0.645,0.348-1.925,0.471-2.57c2.345-0.266,4.69-0.522,7.035-0.809  c3,0.932,6.042,1.761,9.042,2.693c-0.41,0.635-1.219,1.905-1.628,2.54c1.966,1.536,4.147-0.451,6.195,0.358  c3.492,1.382,7.373,0.717,10.926,1.946c-0.215,3.717-0.205,7.455-0.072,11.182c7.526,0.543,15.043,0.86,22.415,2.652  c-0.788,0.942-1.567,1.894-2.324,2.857c4.526,2.089,9.779,0.164,14.305,1.628c1.321,8.305,0.102,16.927,0.635,25.354  c0.963-0.492,1.935-0.983,2.898-1.475c2.509,0.113,5.028,0.297,7.506,0.799c1.239-0.256,2.478-0.502,3.727-0.747  c-0.113-4.229,1.188-8.243,2.284-12.268c3.676-0.113,7.352,0.021,11.039,0.092c1.147-1.28,2.314-2.55,3.512-3.799  c2.591-0.41,4.772-1.853,6.728-3.523c0.154,0.594,0.451,1.772,0.604,2.355c12.86,10.153,5.078,0.508,16.763,9.554  c0.092,0.553,0.276,1.669,0.369,2.232c0.44,0.307,1.321,0.911,1.772,1.219c0.082,2.529,0.205,5.059,0.358,7.588  c1.311-0.942,2.56-1.987,3.994-2.724c1.976,1.239,3.164,4.096,5.888,3.85c5.745,0.184,11.51-0.133,17.254,0.123  c0.563,0.379,1.669,1.147,2.222,1.526c0.922-0.86,1.853-1.71,2.796-2.55c0.942-10.312-0.573-20.746,1.28-30.986  c1.628-0.051,3.277-0.082,4.915-0.113c0.379-1.526,0.758-3.031,1.137-4.536c3.246-0.225,6.502-0.01,9.728,0.44  c-0.01,0.584-0.031,1.761-0.041,2.345c4.106,1.137,7.987,2.898,12.042,4.198c2.632-0.604,4.997-1.802,5.755-4.608  c6.042-0.625,11.418,3.154,17.531,2.181c0.133,0.676,0.41,2.027,0.543,2.703c1.26,0.758,2.468,1.597,3.83,2.181  c3.011-0.379,6.052-0.707,9.062-0.072c0.246-1.577,0.471-3.144,0.676-4.71c8.376,0.932,16.804,0.717,25.211,0.952  c1.219,3.891-0.369,7.977,0.707,11.889c1.669,0.502,3.338,1.044,5.007,1.587c0.215,1.802,0.43,3.615,0.666,5.437  c4.864,1.229,9.902,1.516,14.909,1.434c0.123,7.168-0.246,14.357,0.123,21.524c1.126,3.307,2.744,6.461,3.144,10.005  c1.505-0.092,3.021-0.164,4.536-0.236c0.543-1.27,1.085-2.54,1.638-3.799c2.581,0.307,6.113-1.034,7.741,1.7  c2.253,0.184,4.506,0.348,6.769,0.522c2.087-17.273-1.552-30.775,3.113-44.841c3.154-0.942,6.421-1.219,9.677-1.557  c1.198-0.963,0.747-2.847,1.229-4.137c2.15,0.399,4.25,1.096,6.246,2.038c0.594,1.659,1.239,3.287,1.976,4.925  c0.86-1.485,1.526-3.062,2.038-4.69c1.823,0.082,3.645,0.215,5.478,0.389c0.666,2.099,1.341,4.198,2.048,6.298  c1.782,1.208,3.072,2.929,4.127,4.782c-0.563,4.301-0.717,8.704,0.01,13.005c1.659,0.573,3.41,0.922,5.028,1.679  c0.379,1.28,0.758,2.57,1.137,3.871c3.215,1.638,2.222-3.471,2.98-5.315c2.816-0.051,5.642-0.123,8.479-0.215  c-0.113-1.413-0.533-2.877,0.051-4.239c1.751-5.478,1.034-11.315,1.3-16.968c0.758-0.051,2.263-0.164,3.011-0.215  c0.154-0.737,0.44-2.222,0.584-2.959c7.506,0.522,15.299-1.434,22.569,1.065c0.092,0.696,0.276,2.089,0.369,2.785  c2.99,0.625,6.656,0.297,9.052,2.427c-0.737,10.578,0.338,21.176,0.205,31.765c1.3-0.522,2.611-1.044,3.922-1.577  c1.157-2.499,3.645-3.594,6.328-3.267c0.901,1.055,1.7,2.202,2.488,3.369c6.701,1.055,4.127,1.281,10.127,2.417  c1.505-7.311,0.317-14.817,0.789-22.2c0.819-0.952,1.731-1.843,2.427-2.898c0.747-12.851,0.584-25.733,0.553-38.605  c10.639-1.321,21.443-0.061,31.795,2.499c1.311,11.356,0.819,22.794,1.075,34.191c0.747,0.102,2.243,0.297,2.99,0.399  c0.051,12.923-0.113,25.846,0.092,38.769c2.284,0.031,4.577,0.061,6.871,0.072c0.174-4.444,0.215-8.888,0.215-13.322  c3.594-1.372,7.168-2.806,10.65-4.434c-0.819-0.952-1.638-1.894-2.458-2.836c0.01-3.379,0.092-6.758,0.225-10.138  c3.881,0.041,7.844-0.031,11.469-1.618c1.208-1.905,3.533-1.526,5.458-1.741c0.369,0.522,1.106,1.556,1.475,2.079  c2.007,0.276,4.024,0.614,6.011,1.106c0.358-0.041,1.075-0.133,1.434-0.174c2.396,1.321,5.079,1.843,7.752,2.324  c-0.041,3.113-0.051,6.246-0.02,9.37c-0.41,0.461-1.229,1.393-1.638,1.853c0.348,6.093,0.092,12.206,0.707,18.289  c1.444-0.092,2.898-0.184,4.352-0.266c0.42-2.202,0.86-4.403,1.28-6.595c3.133,0.143,6.277,0.317,9.421,0.451  c0.809,1.464,1.669,2.939,2.57,4.372c0.604,2.028,1.178,4.065,1.751,6.124c3.089-1.103,1.565,1.593,3.052-47.094  c2.335-0.01,4.895-0.154,5.704-2.796c5.56-0.195,11.131-0.123,16.701,0.021c0.297,4.895,0.492,9.789,0.573,14.694  c0.399,0.369,1.198,1.106,1.597,1.475c-0.021,5.427,0.133,10.865-0.307,16.282c4.045-0.01,7.608,2.335,11.663,2.253  c3.645-0.235,6.676,2.335,10.332,2.284c0.287,0.399,0.881,1.208,1.178,1.618c3.369,0.645,6.769,1.198,10.22,1.382  c1.044-18.586,0.235-37.212,1.096-55.798c2.15-1.065,4.127-3.226,6.748-2.724c3.041,0.819,5.98,2.243,9.216,2.068  c4.301,0.328,9.052-0.676,12.902,1.792c-0.42,10.936-0.696,21.893-0.328,32.829c2.038,0.174,4.086,0.338,6.154,0.522  c0.307-0.522,0.932-1.567,1.239-2.089c3.861,0.01,7.731,0.164,11.602-0.051c0.42-17.746,0.113-35.492,0.164-53.238  c1.362-0.84,2.744-1.649,4.127-2.468c0.01-2.468,0.041-4.925,0.123-7.383c5.027-4.834,1.924-1.577,3.072-23.603  c3.011-3.308,1.833-8.11,2.539-12.165c1.659-1.413,3.318-2.826,4.946-4.27c0.338,0.031,1.024,0.113,1.372,0.143  c2.98-1.71,6.226-3.328,8.233-6.236c0.746-20.328,1.733-21.508,4.157-22.62c0.072,2.734,0.021,5.509,0.563,8.223  c1.29,5.407-0.287,10.977,0.676,16.435c0.328-0.594,0.983-1.772,1.311-2.365c0.87,0.44,1.741,0.87,2.621,1.321  c-0.604-0.041-1.812-0.123-2.417-0.174c1.608,5.449,1.295,1.649,12.38,11.592c0.655,3.533,0.645,7.137,0.594,10.721  c0.399,0.358,1.198,1.085,1.608,1.444c1.311,6.799-0.819,13.926,1.096,20.654c1.987,0.461,4.035,0.86,5.929,1.69  c0.788,9.83,0.205,19.763,0.246,29.635c16.1-2.062-3.616-1.688,22.446-2.325c-0.113-5.53,0.758-10.987,2.396-16.251  c5.089-0.604,9.994-2.437,15.176-2.376c-0.031-1.546-0.041-3.082-0.041-4.608c6.513,1.311,13.21,0.256,19.794,0.993  c-0.123-1.505-0.236-3.011-0.338-4.516c1.219,0.092,2.447,0.195,3.697,0.297c0.328,0.809,0.973,2.417,1.3,3.215  c0.512-0.819,1.557-2.468,2.069-3.297c0.788,0.205,2.365,0.604,3.154,0.809c0.061,0.758,0.174,2.263,0.236,3.021  c8.806-0.287,17.736,2.386,26.47,0.061c0.502-1.905,0.993-3.809,1.536-5.693c2.009,1.455,1.713,2.939,1.444,15.893  c4.936-0.164,9.82,0.532,14.684,1.3c0.102,1.628,0.174,3.267,0.205,4.915c13.824-0.553,28.109,5.12,36.495,16.384  c1.3,0,2.621,0.01,3.953,0.031c0.557-75.75,0.963-72.735,0.963-72.735c1.352-1.024,2.642-2.181,4.188-2.949  c5.54,1.669,11.243,4.045,15.401,8.192c0,0,0.905-62.883,1.014-180.06c-1.71-1.567-3.604-2.939-5.796-3.697  c-0.788-0.676-1.567-1.341-2.324-2.007c0.943-7.436-6.841-12.004-1.966-27.873c5.695-11.241,6.987-13.878,21.176-19.169  c0.574-4.915,1.577-9.82,1.116-14.797c-0.44-0.338-1.331-1.024-1.782-1.372c4.072-6.645,0.264-24.114,2.54-33.505  c-5.775-4.086-6.748-13.179-1.28-17.93c-0.246-1.577-0.44-3.164-0.574-4.751c1.444-0.307,2.908-0.614,4.393-0.911  c-0.256-0.901-0.481-1.802-0.696-2.693c0.813-4.224,0.963-26.659-0.246-31.549c-0.635-2.048,1.372-3.451,2.775-4.495  c0.486-35.316,0.387-31.263-2.314-37.325c0.85-0.532,1.71-1.075,2.58-1.608c-0.897-18.675,1.498-13.057,0.778-48.486  C1126.506,35.423,1127.848,30.149,1128.227,24.804 M1741.367,265.874c0,2.917,3.126,18.021,5.222,20.91  c8.069-2.755,16.517-4.045,24.812-5.898c1.823-7.905,4.076-15.708,5.581-23.675C1765.083,259.976,1753.297,263.232,1741.367,265.874   M1120.127,299.195c0.287,5.386-0.788,10.926,0.553,16.21c1.157-0.276,2.324-0.543,3.502-0.819  C1123.263,295.666,1126.179,301.179,1120.127,299.195 M1120.045,330.314c0.051,4.669,0.164,9.349-0.143,14.019  c1.219-0.451,2.478-0.87,3.707-1.362c-0.061-3.523-0.041-7.035,0.154-10.547C1122.544,331.676,1121.274,331,1120.045,330.314   M1119.922,358.945c0.164,4.905,0.01,9.82,0.051,14.725c2.836-1.822,4.111-0.122,3.359-11.899  C1122.779,360.256,1121.12,359.765,1119.922,358.945 M1119.779,387.802c0.02,4.874-0.021,9.748-0.082,14.633  c4.394-3.151,3.178,2.196,3.533-12.534C1122.073,389.174,1120.926,388.478,1119.779,387.802 M1119.308,416.464  c-0.133,4.854-0.072,9.718-0.031,14.582c1.331-0.236,2.673-0.461,4.024-0.676c0.061-4.096,0.072-8.192,0-12.288  C1121.97,417.529,1120.629,416.976,1119.308,416.464 M1119.185,445.279c-0.154,5.294-0.051,10.598-0.103,15.903  c1.044-0.041,3.123-0.133,4.168-0.174c0.01-4.669-0.021-9.339,0.031-13.998C1121.899,446.436,1120.537,445.852,1119.185,445.279   M1139.143,537.07c-0.41,14.571-0.225,29.164-0.164,43.745c1.26-0.553,2.499-1.178,3.727-1.833  C1143.367,543.11,1144.03,540.233,1139.143,537.07 M1138.948,590.554c0.84-0.031,2.519-0.082,3.359-0.113  c0.041-1.362,0.062-2.703,0.051-4.045C1140.597,587.287,1138.702,588.24,1138.948,590.554z"
   id="path2"
   style="fill:#ffd700;fill-opacity:1" />
</svg>
